<svg xmlns="http://www.w3.org/2000/svg" xmlns:xlink="http://www.w3.org/1999/xlink" xmlns:inkscape="http://www.inkscape.org/namespaces/inkscape" version="1.1" width="595.32" height="841.92" viewBox="0 0 595.32 841.92">
<defs>
<clipPath id="clip_0">
<path transform="matrix(1,0,0,-1,0,841.92)" d="M.000008871 0H595.32V841.92H.000008871Z" clip-rule="evenodd"/>
</clipPath>
<clipPath id="clip_1">
<path transform="matrix(1,0,0,-1,0,841.92)" d="M.000008871 0H595.32V841.92H.000008871Z" clip-rule="evenodd"/>
</clipPath>
<clipPath id="clip_2">
<path transform="matrix(1,0,0,-1,0,841.92)" d="M.000008871 0H595.32V841.92H.000008871Z" clip-rule="evenodd"/>
</clipPath>
<clipPath id="clip_3">
<path transform="matrix(1,0,0,-1,0,841.92)" d="M.000008871 0H595.32V841.92H.000008871Z" clip-rule="evenodd"/>
</clipPath>
<clipPath id="clip_4">
<path transform="matrix(1,0,0,-1,0,841.92)" d="M.000008871 0H595.32V841.92H.000008871Z" clip-rule="evenodd"/>
</clipPath>
<clipPath id="clip_5">
<path transform="matrix(1,0,0,-1,0,841.92)" d="M.000008871 0H595.32V841.92H.000008871Z" clip-rule="evenodd"/>
</clipPath>
<clipPath id="clip_6">
<path transform="matrix(1,0,0,-1,0,841.92)" d="M.000008871 0H595.32V841.92H.000008871Z" clip-rule="evenodd"/>
</clipPath>
<clipPath id="clip_7">
<path transform="matrix(1,0,0,-1,0,841.92)" d="M.000008871 0H595.32V841.92H.000008871Z" clip-rule="evenodd"/>
</clipPath>
<clipPath id="clip_8">
<path transform="matrix(1,0,0,-1,0,841.92)" d="M.000008871 0H595.32V841.92H.000008871Z" clip-rule="evenodd"/>
</clipPath>
<clipPath id="clip_9">
<path transform="matrix(1,0,0,-1,0,841.92)" d="M.000008871 0H595.32V841.92H.000008871Z" clip-rule="evenodd"/>
</clipPath>
<clipPath id="clip_10">
<path transform="matrix(1,0,0,-1,0,841.92)" d="M.000008871 0H595.32V841.92H.000008871Z" clip-rule="evenodd"/>
</clipPath>
<clipPath id="clip_11">
<path transform="matrix(1,0,0,-1,0,841.92)" d="M.000008871 0H595.32V841.92H.000008871Z" clip-rule="evenodd"/>
</clipPath>
<clipPath id="clip_12">
<path transform="matrix(1,0,0,-1,0,841.92)" d="M.000008871 0H595.32V841.92H.000008871Z" clip-rule="evenodd"/>
</clipPath>
<clipPath id="clip_13">
<path transform="matrix(1,0,0,-1,0,841.92)" d="M.000008871 0H595.32V841.92H.000008871Z" clip-rule="evenodd"/>
</clipPath>
<clipPath id="clip_14">
<path transform="matrix(1,0,0,-1,0,841.92)" d="M.000008871 0H595.32V841.92H.000008871Z" clip-rule="evenodd"/>
</clipPath>
<clipPath id="clip_15">
<path transform="matrix(1,0,0,-1,0,841.92)" d="M.000008871 0H595.32V841.92H.000008871Z" clip-rule="evenodd"/>
</clipPath>
<clipPath id="clip_16">
<path transform="matrix(1,0,0,-1,0,841.92)" d="M.000008871 0H595.32V841.92H.000008871Z" clip-rule="evenodd"/>
</clipPath>
<clipPath id="clip_17">
<path transform="matrix(1,0,0,-1,0,841.92)" d="M.000008871 0H595.32V841.92H.000008871Z" clip-rule="evenodd"/>
</clipPath>
<clipPath id="clip_18">
<path transform="matrix(1,0,0,-1,0,841.92)" d="M.000008871 0H595.32V841.92H.000008871Z" clip-rule="evenodd"/>
</clipPath>
<clipPath id="clip_19">
<path transform="matrix(1,0,0,-1,0,841.92)" d="M.000008871 0H595.32V841.92H.000008871Z" clip-rule="evenodd"/>
</clipPath>
<clipPath id="clip_20">
<path transform="matrix(1,0,0,-1,0,841.92)" d="M.000008871 0H595.32V841.92H.000008871Z" clip-rule="evenodd"/>
</clipPath>
<clipPath id="clip_21">
<path transform="matrix(1,0,0,-1,0,841.92)" d="M.000008871 0H595.32V841.92H.000008871Z" clip-rule="evenodd"/>
</clipPath>
<clipPath id="clip_22">
<path transform="matrix(1,0,0,-1,0,841.92)" d="M.000008871 0H595.32V841.92H.000008871Z" clip-rule="evenodd"/>
</clipPath>
<clipPath id="clip_23">
<path transform="matrix(1,0,0,-1,0,841.92)" d="M.000008871 0H595.32V841.92H.000008871Z" clip-rule="evenodd"/>
</clipPath>
<clipPath id="clip_24">
<path transform="matrix(1,0,0,-1,0,841.92)" d="M.000008871 0H595.32V841.92H.000008871Z" clip-rule="evenodd"/>
</clipPath>
<clipPath id="clip_25">
<path transform="matrix(1,0,0,-1,0,841.92)" d="M.000008871 0H595.32V841.92H.000008871Z" clip-rule="evenodd"/>
</clipPath>
<clipPath id="clip_26">
<path transform="matrix(1,0,0,-1,0,841.92)" d="M.000008871 0H595.32V841.92H.000008871Z" clip-rule="evenodd"/>
</clipPath>
<clipPath id="clip_27">
<path transform="matrix(1,0,0,-1,0,841.92)" d="M.000008871 0H595.32V841.92H.000008871Z" clip-rule="evenodd"/>
</clipPath>
<clipPath id="clip_28">
<path transform="matrix(1,0,0,-1,0,841.92)" d="M.000008871 0H595.32V841.92H.000008871Z" clip-rule="evenodd"/>
</clipPath>
<clipPath id="clip_29">
<path transform="matrix(1,0,0,-1,0,841.92)" d="M.000008871 0H595.32V841.92H.000008871Z" clip-rule="evenodd"/>
</clipPath>
<clipPath id="clip_30">
<path transform="matrix(1,0,0,-1,0,841.92)" d="M.000008871 0H595.32V841.92H.000008871Z" clip-rule="evenodd"/>
</clipPath>
<clipPath id="clip_31">
<path transform="matrix(1,0,0,-1,0,841.92)" d="M.000008871 0H595.32V841.92H.000008871Z" clip-rule="evenodd"/>
</clipPath>
<clipPath id="clip_32">
<path transform="matrix(1,0,0,-1,0,841.92)" d="M.000008871 0H595.32V841.92H.000008871Z" clip-rule="evenodd"/>
</clipPath>
<clipPath id="clip_33">
<path transform="matrix(1,0,0,-1,0,841.92)" d="M.000008871 0H595.32V841.92H.000008871Z" clip-rule="evenodd"/>
</clipPath>
<clipPath id="clip_34">
<path transform="matrix(1,0,0,-1,0,841.92)" d="M.000008871 0H595.32V841.92H.000008871Z" clip-rule="evenodd"/>
</clipPath>
<clipPath id="clip_35">
<path transform="matrix(1,0,0,-1,0,841.92)" d="M.000008871 0H595.32V841.92H.000008871Z" clip-rule="evenodd"/>
</clipPath>
<clipPath id="clip_36">
<path transform="matrix(1,0,0,-1,0,841.92)" d="M.000008871 0H595.32V841.92H.000008871Z" clip-rule="evenodd"/>
</clipPath>
<clipPath id="clip_37">
<path transform="matrix(1,0,0,-1,0,841.92)" d="M.000008871 0H595.32V841.92H.000008871Z" clip-rule="evenodd"/>
</clipPath>
<clipPath id="clip_38">
<path transform="matrix(1,0,0,-1,0,841.92)" d="M.000008871 0H595.32V841.92H.000008871Z" clip-rule="evenodd"/>
</clipPath>
<clipPath id="clip_39">
<path transform="matrix(1,0,0,-1,0,841.92)" d="M.000008871 0H595.32V841.92H.000008871Z" clip-rule="evenodd"/>
</clipPath>
<clipPath id="clip_40">
<path transform="matrix(1,0,0,-1,0,841.92)" d="M.000008871 0H595.32V841.92H.000008871Z" clip-rule="evenodd"/>
</clipPath>
<clipPath id="clip_41">
<path transform="matrix(1,0,0,-1,0,841.92)" d="M.000008871 0H595.32V841.92H.000008871Z" clip-rule="evenodd"/>
</clipPath>
<clipPath id="clip_42">
<path transform="matrix(1,0,0,-1,0,841.92)" d="M.000008871 0H595.32V841.92H.000008871Z" clip-rule="evenodd"/>
</clipPath>
<clipPath id="clip_43">
<path transform="matrix(1,0,0,-1,0,841.92)" d="M.000008871 0H595.32V841.92H.000008871Z" clip-rule="evenodd"/>
</clipPath>
<clipPath id="clip_44">
<path transform="matrix(1,0,0,-1,0,841.92)" d="M.000008871 0H595.32V841.92H.000008871Z" clip-rule="evenodd"/>
</clipPath>
<clipPath id="clip_45">
<path transform="matrix(1,0,0,-1,0,841.92)" d="M.000008871 0H595.32V841.92H.000008871Z" clip-rule="evenodd"/>
</clipPath>
<clipPath id="clip_46">
<path transform="matrix(1,0,0,-1,0,841.92)" d="M.000008871 0H595.32V841.92H.000008871Z" clip-rule="evenodd"/>
</clipPath>
<clipPath id="clip_47">
<path transform="matrix(1,0,0,-1,0,841.92)" d="M.000008871 0H595.32V841.92H.000008871Z" clip-rule="evenodd"/>
</clipPath>
<clipPath id="clip_48">
<path transform="matrix(1,0,0,-1,0,841.92)" d="M.000008871 0H595.32V841.92H.000008871Z" clip-rule="evenodd"/>
</clipPath>
<clipPath id="clip_49">
<path transform="matrix(1,0,0,-1,0,841.92)" d="M.000008871 0H595.32V841.92H.000008871Z" clip-rule="evenodd"/>
</clipPath>
<clipPath id="clip_50">
<path transform="matrix(1,0,0,-1,0,841.92)" d="M.000008871 0H595.32V841.92H.000008871Z" clip-rule="evenodd"/>
</clipPath>
<clipPath id="clip_51">
<path transform="matrix(1,0,0,-1,0,841.92)" d="M.000008871 0H595.32V841.92H.000008871Z" clip-rule="evenodd"/>
</clipPath>
<clipPath id="clip_52">
<path transform="matrix(1,0,0,-1,0,841.92)" d="M.000008871 0H595.32V841.92H.000008871Z" clip-rule="evenodd"/>
</clipPath>
<clipPath id="clip_53">
<path transform="matrix(1,0,0,-1,0,841.92)" d="M.000008871 0H595.32V841.92H.000008871Z" clip-rule="evenodd"/>
</clipPath>
<clipPath id="clip_54">
<path transform="matrix(1,0,0,-1,0,841.92)" d="M.000008871 0H595.32V841.92H.000008871Z" clip-rule="evenodd"/>
</clipPath>
<clipPath id="clip_55">
<path transform="matrix(1,0,0,-1,0,841.92)" d="M.000008871 0H595.32V841.92H.000008871Z" clip-rule="evenodd"/>
</clipPath>
<clipPath id="clip_56">
<path transform="matrix(1,0,0,-1,0,841.92)" d="M.000008871 0H595.32V841.92H.000008871Z" clip-rule="evenodd"/>
</clipPath>
<clipPath id="clip_57">
<path transform="matrix(1,0,0,-1,0,841.92)" d="M.000008871 0H595.32V841.92H.000008871Z" clip-rule="evenodd"/>
</clipPath>
<clipPath id="clip_58">
<path transform="matrix(1,0,0,-1,0,841.92)" d="M.000008871 0H595.32V841.92H.000008871Z" clip-rule="evenodd"/>
</clipPath>
<clipPath id="clip_59">
<path transform="matrix(1,0,0,-1,0,841.92)" d="M.000008871 0H595.32V841.92H.000008871Z" clip-rule="evenodd"/>
</clipPath>
<clipPath id="clip_60">
<path transform="matrix(1,0,0,-1,0,841.92)" d="M.000008871 0H595.32V841.92H.000008871Z" clip-rule="evenodd"/>
</clipPath>
<clipPath id="clip_61">
<path transform="matrix(1,0,0,-1,0,841.92)" d="M.000008871 0H595.32V841.92H.000008871Z" clip-rule="evenodd"/>
</clipPath>
<clipPath id="clip_62">
<path transform="matrix(1,0,0,-1,0,841.92)" d="M.000008871 0H595.32V841.92H.000008871Z" clip-rule="evenodd"/>
</clipPath>
<clipPath id="clip_63">
<path transform="matrix(1,0,0,-1,0,841.92)" d="M.000008871 0H595.32V841.92H.000008871Z" clip-rule="evenodd"/>
</clipPath>
<clipPath id="clip_64">
<path transform="matrix(1,0,0,-1,0,841.92)" d="M.000008871 0H595.32V841.92H.000008871Z" clip-rule="evenodd"/>
</clipPath>
<clipPath id="clip_65">
<path transform="matrix(1,0,0,-1,0,841.92)" d="M.000008871 0H595.32V841.92H.000008871Z" clip-rule="evenodd"/>
</clipPath>
<clipPath id="clip_66">
<path transform="matrix(1,0,0,-1,0,841.92)" d="M.000008871 0H595.32V841.92H.000008871Z" clip-rule="evenodd"/>
</clipPath>
<clipPath id="clip_67">
<path transform="matrix(1,0,0,-1,0,841.92)" d="M.000008871 0H595.32V841.92H.000008871Z" clip-rule="evenodd"/>
</clipPath>
<clipPath id="clip_68">
<path transform="matrix(1,0,0,-1,0,841.92)" d="M.000008871 0H595.32V841.92H.000008871Z" clip-rule="evenodd"/>
</clipPath>
<clipPath id="clip_69">
<path transform="matrix(1,0,0,-1,0,841.92)" d="M.000008871 0H595.32V841.92H.000008871Z" clip-rule="evenodd"/>
</clipPath>
<clipPath id="clip_70">
<path transform="matrix(1,0,0,-1,0,841.92)" d="M.000008871 0H595.32V841.92H.000008871Z" clip-rule="evenodd"/>
</clipPath>
<clipPath id="clip_71">
<path transform="matrix(1,0,0,-1,0,841.92)" d="M.000008871 0H595.32V841.92H.000008871Z" clip-rule="evenodd"/>
</clipPath>
<clipPath id="clip_72">
<path transform="matrix(1,0,0,-1,0,841.92)" d="M.000008871 0H595.32V841.92H.000008871Z" clip-rule="evenodd"/>
</clipPath>
<clipPath id="clip_73">
<path transform="matrix(1,0,0,-1,0,841.92)" d="M.000008871 0H595.32V841.92H.000008871Z" clip-rule="evenodd"/>
</clipPath>
<clipPath id="clip_74">
<path transform="matrix(1,0,0,-1,0,841.92)" d="M.000008871 0H595.32V841.92H.000008871Z" clip-rule="evenodd"/>
</clipPath>
<clipPath id="clip_75">
<path transform="matrix(1,0,0,-1,0,841.92)" d="M.000008871 0H595.32V841.92H.000008871Z" clip-rule="evenodd"/>
</clipPath>
<clipPath id="clip_76">
<path transform="matrix(1,0,0,-1,0,841.92)" d="M.000008871 0H595.32V841.92H.000008871Z" clip-rule="evenodd"/>
</clipPath>
<clipPath id="clip_77">
<path transform="matrix(1,0,0,-1,0,841.92)" d="M.000008871 0H595.32V841.92H.000008871Z" clip-rule="evenodd"/>
</clipPath>
<clipPath id="clip_78">
<path transform="matrix(1,0,0,-1,0,841.92)" d="M.000008871 0H595.32V841.92H.000008871Z" clip-rule="evenodd"/>
</clipPath>
<clipPath id="clip_79">
<path transform="matrix(1,0,0,-1,0,841.92)" d="M.000008871 0H595.32V841.92H.000008871Z" clip-rule="evenodd"/>
</clipPath>
<clipPath id="clip_80">
<path transform="matrix(1,0,0,-1,0,841.92)" d="M.000008871 0H595.32V841.92H.000008871Z" clip-rule="evenodd"/>
</clipPath>
<clipPath id="clip_81">
<path transform="matrix(1,0,0,-1,0,841.92)" d="M.000008871 0H595.32V841.92H.000008871Z" clip-rule="evenodd"/>
</clipPath>
<clipPath id="clip_82">
<path transform="matrix(1,0,0,-1,0,841.92)" d="M.000008871 0H595.32V841.92H.000008871Z" clip-rule="evenodd"/>
</clipPath>
<clipPath id="clip_83">
<path transform="matrix(1,0,0,-1,0,841.92)" d="M.000008871 0H595.32V841.92H.000008871Z" clip-rule="evenodd"/>
</clipPath>
<clipPath id="clip_84">
<path transform="matrix(1,0,0,-1,0,841.92)" d="M.000008871 0H595.32V841.92H.000008871Z" clip-rule="evenodd"/>
</clipPath>
<clipPath id="clip_85">
<path transform="matrix(1,0,0,-1,0,841.92)" d="M.000008871 0H595.32V841.92H.000008871Z" clip-rule="evenodd"/>
</clipPath>
<clipPath id="clip_86">
<path transform="matrix(1,0,0,-1,0,841.92)" d="M.000008871 0H595.32V841.92H.000008871Z" clip-rule="evenodd"/>
</clipPath>
<clipPath id="clip_87">
<path transform="matrix(1,0,0,-1,0,841.92)" d="M.000008871 0H595.32V841.92H.000008871Z" clip-rule="evenodd"/>
</clipPath>
<clipPath id="clip_88">
<path transform="matrix(1,0,0,-1,0,841.92)" d="M.000008871 0H595.32V841.92H.000008871Z" clip-rule="evenodd"/>
</clipPath>
<clipPath id="clip_89">
<path transform="matrix(1,0,0,-1,0,841.92)" d="M.000008871 0H595.32V841.92H.000008871Z" clip-rule="evenodd"/>
</clipPath>
</defs>
<g>
<g clip-path="url(#clip_0)">
<text xml:space="preserve" transform="matrix(1 0 -0 1 0 841.92)" font-size="14.04" font-family="SimSun"><tspan y="-759.72" x="175.82 190.82 205.82 220.82 235.82 250.82 265.82 280.82 295.82 310.82 325.82 340.82 355.82 370.82 385.82 400.82 415.82">&#x5317;&#x4eac;&#x7406;&#x5de5;&#x5927;&#x5b66;&#x672c;&#x79d1;&#x751f;&#x6bd5;&#x4e1a;&#x8bbe;&#x8ba1;&#xff08;&#x8bba;&#x6587;&#xff09;</tspan></text>
</g>
<g clip-path="url(#clip_1)">
<text xml:space="preserve" transform="matrix(1 0 -0 1 0 841.92)" font-size="14.04" font-family="TimesNewRomanPSMT"><tspan y="-759.72" x="430.87"> </tspan></text>
</g>
<g clip-path="url(#clip_2)">
<path transform="matrix(1,0,0,-1,0,841.92)" d="M83.664 753.94H523.174V754.66H83.664Z" fill-rule="evenodd"/>
</g>
<g clip-path="url(#clip_3)">
<text xml:space="preserve" transform="matrix(1 0 -0 1 0 841.92)" font-size="10.56" font-family="TimesNewRomanPSMT"><tspan y="-69.264" x="303.41"> </tspan></text>
</g>
<g clip-path="url(#clip_4)">
</g>
<g clip-path="url(#clip_5)">
<text xml:space="preserve" transform="matrix(1 0 -0 1 0 841.92)" font-size="9" font-family="TimesNewRomanPSMT"><tspan y="-58.584" x="85.104"> </tspan></text>
</g>
<g clip-path="url(#clip_6)">
</g>
<g clip-path="url(#clip_7)">
<text xml:space="preserve" transform="matrix(1 0 -0 1 0 841.92)" font-size="21.96" font-family="SimHei"><tspan y="-703.54" x="248.21 270.29 292.37 314.44999 336.52998">&#x539f;&#x521b;&#x6027;&#x58f0;&#x660e;</tspan></text>
<text xml:space="preserve" transform="matrix(1 0 -0 1 0 841.92)" font-size="21.96" font-family="SimHei"><tspan y="-703.54" x="248.21 270.29 292.37 314.44999 336.52998">&#x539f;&#x521b;&#x6027;&#x58f0;&#x660e;</tspan></text>
</g>
<g clip-path="url(#clip_8)">
<text xml:space="preserve" transform="matrix(1 0 -0 1 0 841.92)" font-size="21.96" font-family="SimHei"><tspan y="-703.54" x="358.63"> </tspan></text>
<text xml:space="preserve" transform="matrix(1 0 -0 1 0 841.92)" font-size="21.96" font-family="SimHei"><tspan y="-703.54" x="358.63"> </tspan></text>
</g>
<g clip-path="url(#clip_9)">
<text xml:space="preserve" transform="matrix(1 0 -0 1 0 841.92)" font-size="15" font-family="SimSun"><tspan y="-665.14" x="115.1 130.1 145.1 160.1 175.1 190.1 205.1 218.06002 233.16501 248.16501 263.165 278.165 293.165 308.165 323.165 336.125 351.23 366.23 381.23 388.67 401.63 416.63 431.63 446.63 461.73503 476.73503 491.73503 506.73503">&#x672c;&#x4eba;&#x90d1;&#x91cd;&#x58f0;&#x660e;&#xff1a;&#x6240;&#x5448;&#x4ea4;&#x7684;&#x6bd5;&#x4e1a;&#x8bbe;&#x8ba1;&#xff08;&#x8bba;&#x6587;&#xff09;&#xff0c;&#x662f;&#x672c;&#x4eba;&#x5728;&#x6307;&#x5bfc;&#x8001;&#x5e08;</tspan></text>
</g>
<g clip-path="url(#clip_10)">
<text xml:space="preserve" transform="matrix(1 0 -0 1 0 841.92)" font-size="15" font-family="SimSun"><tspan y="-640.78" x="85.104 100.104 115.104 130.209 145.209 160.314 175.314 190.41899 205.52399 220.52399 235.52399 250.62899 265.62898 280.73399 295.73399 310.839 325.944 340.944 355.944 371.049 386.049 401.15403 416.15403 431.25904 446.36405 461.36405 476.36405 491.46907 506.46907">&#x7684;&#x6307;&#x5bfc;&#x4e0b;&#x72ec;&#x7acb;&#x8fdb;&#x884c;&#x7814;&#x7a76;&#x6240;&#x53d6;&#x5f97;&#x7684;&#x6210;&#x679c;&#x3002;&#x9664;&#x6587;&#x4e2d;&#x5df2;&#x7ecf;&#x6ce8;&#x660e;&#x5f15;&#x7528;&#x7684;&#x5185;&#x5bb9;</tspan></text>
</g>
<g clip-path="url(#clip_11)">
<text xml:space="preserve" transform="matrix(1 0 -0 1 0 841.92)" font-size="15" font-family="SimSun"><tspan y="-616.54" x="85.104 100.104 109.104 124.104 139.104 154.104 169.104 184.104 199.104 214.104 229.104 244.104 259.104 274.104 289.104 304.104 319.104 334.104 349.104 364.104 379.104 394.104 409.104 424.104 439.104 454.104 469.104 484.104 499.104 514.104">&#x5916;&#xff0c;&#x672c;&#x6587;&#x4e0d;&#x5305;&#x542b;&#x4efb;&#x4f55;&#x5176;&#x4ed6;&#x4e2a;&#x4eba;&#x6216;&#x96c6;&#x4f53;&#x5df2;&#x7ecf;&#x53d1;&#x8868;&#x6216;&#x64b0;&#x5199;&#x8fc7;&#x7684;&#x7814;&#x7a76;&#x6210;&#x679c;&#x3002;</tspan></text>
</g>
<g clip-path="url(#clip_12)">
<text xml:space="preserve" transform="matrix(1 0 -0 1 0 841.92)" font-size="15" font-family="SimSun"><tspan y="-592.18" x="85.104 100.104 115.104 130.209 145.209 160.314 175.314 190.41899 205.52399 220.52399 235.52399 250.62899 265.62898 280.73399 295.73399 310.839 325.944 340.944 355.944 371.049 386.049 401.15403 416.15403 431.25904 446.36405 461.36405 476.36405 491.46907 506.46907">&#x5bf9;&#x672c;&#x6587;&#x7684;&#x7814;&#x7a76;&#x505a;&#x51fa;&#x91cd;&#x8981;&#x8d21;&#x732e;&#x7684;&#x4e2a;&#x4eba;&#x548c;&#x96c6;&#x4f53;&#xff0c;&#x5747;&#x5df2;&#x5728;&#x6587;&#x4e2d;&#x4ee5;&#x660e;&#x786e;&#x65b9;&#x5f0f;</tspan></text>
</g>
<g clip-path="url(#clip_13)">
<text xml:space="preserve" transform="matrix(1 0 -0 1 0 841.92)" font-size="15" font-family="SimSun"><tspan y="-567.79" x="85.104 100.104 115.104">&#x6807;&#x660e;&#x3002;</tspan></text>
</g>
<g clip-path="url(#clip_14)">
<text xml:space="preserve" transform="matrix(1 0 -0 1 0 841.92)" font-size="15" font-family="SimSun"><tspan y="-567.79" x="130.1"> </tspan></text>
</g>
<g clip-path="url(#clip_15)">
<text xml:space="preserve" transform="matrix(1 0 -0 1 0 841.92)" font-size="15" font-family="SimSun"><tspan y="-543.55" x="115.1 130.1 145.1 160.1 175.1">&#x7279;&#x6b64;&#x7533;&#x660e;&#x3002;</tspan></text>
</g>
<g clip-path="url(#clip_16)">
<text xml:space="preserve" transform="matrix(1 0 -0 1 0 841.92)" font-size="15" font-family="SimSun"><tspan y="-543.55" x="190.13"> </tspan></text>
</g>
<g clip-path="url(#clip_17)">
<text xml:space="preserve" transform="matrix(1 0 -0 1 0 841.92)" font-size="15" font-family="SimSun"><tspan y="-519.19" x="115.1"> </tspan></text>
</g>
<g clip-path="url(#clip_18)">
<text xml:space="preserve" transform="matrix(1 0 -0 1 0 841.92)" font-size="15" font-family="SimSun"><tspan y="-494.83" x="115.1"> </tspan></text>
</g>
<g clip-path="url(#clip_19)">
<text xml:space="preserve" transform="matrix(1 0 -0 1 0 841.92)" font-size="15" font-family="SimSun"><tspan y="-470.59" x="154.1 169.1 184.1 199.1 214.1">&#x672c;&#x4eba;&#x7b7e;&#x540d;&#xff1a;</tspan></text>
</g>
<g clip-path="url(#clip_20)">
<text xml:space="preserve" transform="matrix(1 0 -0 1 0 841.92)" font-size="15" font-family="SimSun"><tspan y="-470.59" x="229.13 236.69">  </tspan></text>
</g>
<g clip-path="url(#clip_21)">
<text xml:space="preserve" transform="matrix(1 0 -0 1 0 841.92)" font-size="15" font-family="SimSun"><tspan y="-470.59" x="244.25"> </tspan></text>
</g>
<g clip-path="url(#clip_22)">
<text xml:space="preserve" transform="matrix(1 0 -0 1 0 841.92)" font-size="15" font-family="SimSun"><tspan y="-470.59" x="251.69"> </tspan></text>
</g>
<g clip-path="url(#clip_23)">
<text xml:space="preserve" transform="matrix(1 0 -0 1 0 841.92)" font-size="15" font-family="SimSun"><tspan y="-470.59" x="259.25 266.69 274.13 281.67503 289.22004 296.66004">      </tspan></text>
</g>
<g clip-path="url(#clip_24)">
<text xml:space="preserve" transform="matrix(1 0 -0 1 0 841.92)" font-size="15" font-family="SimSun"><tspan y="-470.59" x="304.25 311.69 319.23503 326.67503 334.22004">     </tspan></text>
</g>
<g clip-path="url(#clip_25)">
<text xml:space="preserve" transform="matrix(1 0 -0 1 0 841.92)" font-size="15" font-family="SimSun"><tspan y="-470.59" x="341.83">&#x65e5;</tspan></text>
</g>
<g clip-path="url(#clip_26)">
<text xml:space="preserve" transform="matrix(1 0 -0 1 0 841.92)" font-size="15" font-family="SimSun"><tspan y="-470.59" x="356.71"> </tspan></text>
</g>
<g clip-path="url(#clip_27)">
<text xml:space="preserve" transform="matrix(1 0 -0 1 0 841.92)" font-size="15" font-family="SimSun"><tspan y="-470.59" x="364.27 379.27">&#x671f;&#xff1a;</tspan></text>
</g>
<g clip-path="url(#clip_28)">
<text xml:space="preserve" transform="matrix(1 0 -0 1 0 841.92)" font-size="15" font-family="SimSun"><tspan y="-470.59" x="394.15"> </tspan></text>
</g>
<g clip-path="url(#clip_29)">
<text xml:space="preserve" transform="matrix(1 0 -0 1 0 841.92)" font-size="15" font-family="SimSun"><tspan y="-470.59" x="401.71 409.255 416.695 424.24003">    </tspan></text>
</g>
<g clip-path="url(#clip_30)">
<text xml:space="preserve" transform="matrix(1 0 -0 1 0 841.92)" font-size="15" font-family="SimSun"><tspan y="-470.59" x="431.83">&#x5e74;</tspan></text>
</g>
<g clip-path="url(#clip_31)">
<text xml:space="preserve" transform="matrix(1 0 -0 1 0 841.92)" font-size="15" font-family="SimSun"><tspan y="-470.59" x="446.74"> </tspan></text>
</g>
<g clip-path="url(#clip_32)">
<text xml:space="preserve" transform="matrix(1 0 -0 1 0 841.92)" font-size="15" font-family="SimSun"><tspan y="-470.59" x="454.3 461.74">  </tspan></text>
</g>
<g clip-path="url(#clip_33)">
<text xml:space="preserve" transform="matrix(1 0 -0 1 0 841.92)" font-size="15" font-family="SimSun"><tspan y="-470.59" x="469.3">&#x6708;</tspan></text>
</g>
<g clip-path="url(#clip_34)">
<text xml:space="preserve" transform="matrix(1 0 -0 1 0 841.92)" font-size="15" font-family="SimSun"><tspan y="-470.59" x="484.3"> </tspan></text>
</g>
<g clip-path="url(#clip_35)">
<text xml:space="preserve" transform="matrix(1 0 -0 1 0 841.92)" font-size="15" font-family="SimSun"><tspan y="-470.59" x="491.74 499.3">  </tspan></text>
</g>
<g clip-path="url(#clip_36)">
<text xml:space="preserve" transform="matrix(1 0 -0 1 0 841.92)" font-size="15" font-family="SimSun"><tspan y="-470.59" x="506.74">&#x65e5;</tspan></text>
</g>
<g clip-path="url(#clip_37)">
<text xml:space="preserve" transform="matrix(1 0 -0 1 0 841.92)" font-size="15" font-family="SimSun"><tspan y="-470.59" x="521.74"> </tspan></text>
</g>
<g clip-path="url(#clip_38)">
<text xml:space="preserve" transform="matrix(1 0 -0 1 0 841.92)" font-size="10.56" font-family="SimSun"><tspan y="-445.87" x="106.1"> </tspan></text>
</g>
<g clip-path="url(#clip_39)">
<text xml:space="preserve" transform="matrix(1 0 -0 1 0 841.92)" font-size="10.56" font-family="SimSun"><tspan y="-428.83" x="106.1"> </tspan></text>
</g>
<g clip-path="url(#clip_40)">
<text xml:space="preserve" transform="matrix(1 0 -0 1 0 841.92)" font-size="21.96" font-family="SimHei"><tspan y="-383.33" x="204.05 226.13 248.21 270.29 292.37 314.44999 336.52998 358.60997 380.68995">&#x5173;&#x4e8e;&#x4f7f;&#x7528;&#x6388;&#x6743;&#x7684;&#x58f0;&#x660e;</tspan></text>
<text xml:space="preserve" transform="matrix(1 0 -0 1 0 841.92)" font-size="21.96" font-family="SimHei"><tspan y="-383.33" x="204.05 226.13 248.21 270.29 292.37 314.44999 336.52998 358.60997 380.68995">&#x5173;&#x4e8e;&#x4f7f;&#x7528;&#x6388;&#x6743;&#x7684;&#x58f0;&#x660e;</tspan></text>
</g>
<g clip-path="url(#clip_41)">
<text xml:space="preserve" transform="matrix(1 0 -0 1 0 841.92)" font-size="21.96" font-family="SimHei"><tspan y="-383.33" x="402.79"> </tspan></text>
<text xml:space="preserve" transform="matrix(1 0 -0 1 0 841.92)" font-size="21.96" font-family="SimHei"><tspan y="-383.33" x="402.79"> </tspan></text>
</g>
<g clip-path="url(#clip_42)">
<text xml:space="preserve" transform="matrix(1 0 -0 1 0 841.92)" font-size="15" font-family="SimSun"><tspan y="-344.93" x="115.1 130.1 145.205 160.205 175.31 190.31 205.415 220.415 235.51999 250.51999 265.625 280.625 295.73 310.73 325.83503 340.83503 355.94004 370.94004 386.04505 401.04505 416.15007 431.15007 446.25508 461.25508 476.36009 491.36009 506.36009">&#x672c;&#x4eba;&#x5b8c;&#x5168;&#x4e86;&#x89e3;&#x5317;&#x4eac;&#x7406;&#x5de5;&#x5927;&#x5b66;&#x6709;&#x5173;&#x4fdd;&#x7ba1;&#x3001;&#x4f7f;&#x7528;&#x6bd5;&#x4e1a;&#x8bbe;&#x8ba1;&#xff08;&#x8bba;&#x6587;&#xff09;</tspan></text>
</g>
<g clip-path="url(#clip_43)">
<text xml:space="preserve" transform="matrix(1 0 -0 1 0 841.92)" font-size="15" font-family="SimSun"><tspan y="-320.57" x="85.104 100.104 115.104 130.209 145.209 160.314 175.314 190.41899 205.52399 220.52399 235.52399 250.62899 265.62898 280.73399 295.73399 310.839 325.944 340.944 355.944 371.049 386.049 401.15403 416.15403 431.25904 446.36405 461.36405 476.36405 491.46907 506.46907">&#x7684;&#x89c4;&#x5b9a;&#xff0c;&#x5176;&#x4e2d;&#x5305;&#x62ec;&#xff1a;&#x2460;&#x5b66;&#x6821;&#x6709;&#x6743;&#x4fdd;&#x7ba1;&#x3001;&#x5e76;&#x5411;&#x6709;&#x5173;&#x90e8;&#x95e8;&#x9001;&#x4ea4;&#x672c;&#x6bd5;&#x4e1a;&#x8bbe;</tspan></text>
</g>
<g clip-path="url(#clip_44)">
<text xml:space="preserve" transform="matrix(1 0 -0 1 0 841.92)" font-size="15" font-family="SimSun"><tspan y="-296.33" x="85.104 100.104 115.104 130.209 145.209 160.314 175.314 190.41899 205.52399 220.52399 235.52399 250.62899 265.62898 280.73399 295.73399 310.839 325.944 340.944 355.944 371.049 386.049 401.15403 416.15403 431.25904 446.36405 461.36405 476.36405 491.46907 506.46907">&#x8ba1;&#xff08;&#x8bba;&#x6587;&#xff09;&#x7684;&#x539f;&#x4ef6;&#x4e0e;&#x590d;&#x5370;&#x4ef6;&#xff1b;&#x2461;&#x5b66;&#x6821;&#x53ef;&#x4ee5;&#x91c7;&#x7528;&#x5f71;&#x5370;&#x3001;&#x7f29;&#x5370;&#x6216;&#x5176;&#x5b83;&#x590d;</tspan></text>
</g>
<g clip-path="url(#clip_45)">
<text xml:space="preserve" transform="matrix(1 0 -0 1 0 841.92)" font-size="15" font-family="SimSun"><tspan y="-271.97" x="85.104 100.104 115.104 130.104 145.104 160.104 175.104 190.104 205.104 220.104 235.104 250.104 265.104 273.144 288.144 303.144 318.144 325.584 333.62403 348.62403 363.62403 378.62403 393.62403 408.62403 423.62403 438.62403 453.62403 468.62403 483.62403 491.66404 506.66404">&#x5236;&#x624b;&#x6bb5;&#x590d;&#x5236;&#x5e76;&#x4fdd;&#x5b58;&#x672c;&#x6bd5;&#x4e1a;&#x8bbe;&#x8ba1;&#xff08;&#x8bba;&#x6587;&#xff09;&#xff1b;&#x2462;&#x5b66;&#x6821;&#x53ef;&#x5141;&#x8bb8;&#x672c;&#x6bd5;&#x4e1a;&#x8bbe;&#x8ba1;&#xff08;&#x8bba;</tspan></text>
</g>
<g clip-path="url(#clip_46)">
<text xml:space="preserve" transform="matrix(1 0 -0 1 0 841.92)" font-size="15" font-family="SimSun"><tspan y="-247.61" x="85.104 100.104 112.104 127.104 142.104 157.104 172.104 187.104 202.104 214.104 229.104 244.104 259.104 274.104 289.104 304.104 319.104 334.104 349.104 364.104 379.104">&#x6587;&#xff09;&#x88ab;&#x67e5;&#x9605;&#x6216;&#x501f;&#x9605;&#xff1b;&#x2463;&#x5b66;&#x6821;&#x53ef;&#x4ee5;&#x5b66;&#x672f;&#x4ea4;&#x6d41;&#x4e3a;&#x76ee;&#x7684;</tspan></text>
</g>
<g clip-path="url(#clip_47)">
<text xml:space="preserve" transform="matrix(1 0 -0 1 0 841.92)" font-size="15" font-family="SimSun"><tspan y="-247.61" x="394.15">,</tspan></text>
</g>
<g clip-path="url(#clip_48)">
<text xml:space="preserve" transform="matrix(1 0 -0 1 0 841.92)" font-size="15" font-family="SimSun"><tspan y="-247.61" x="401.71 416.71 431.71 446.71 461.71 476.71 491.71 506.71">&#x590d;&#x5236;&#x8d60;&#x9001;&#x548c;&#x4ea4;&#x6362;&#x672c;</tspan></text>
</g>
<g clip-path="url(#clip_49)">
<text xml:space="preserve" transform="matrix(1 0 -0 1 0 841.92)" font-size="15" font-family="SimSun"><tspan y="-223.34" x="85.104 100.104 115.104 130.104 143.664 158.664 173.664 188.664 196.104 209.664 224.664 239.664 254.664 269.664 284.664 299.664 314.664 329.664 344.664 359.664 374.664 388.224 403.224 418.224 433.224 446.784 461.784 476.784 491.784 506.784">&#x6bd5;&#x4e1a;&#x8bbe;&#x8ba1;&#xff08;&#x8bba;&#x6587;&#xff09;&#xff1b;&#x2464;&#x5b66;&#x6821;&#x53ef;&#x4ee5;&#x516c;&#x5e03;&#x672c;&#x6bd5;&#x4e1a;&#x8bbe;&#x8ba1;&#xff08;&#x8bba;&#x6587;&#xff09;&#x7684;&#x5168;&#x90e8;&#x6216;&#x90e8;</tspan></text>
</g>
<g clip-path="url(#clip_50)">
<text xml:space="preserve" transform="matrix(1 0 -0 1 0 841.92)" font-size="15" font-family="SimSun"><tspan y="-198.98" x="85.104 100.104 115.104 130.104">&#x5206;&#x5185;&#x5bb9;&#x3002;</tspan></text>
</g>
<g clip-path="url(#clip_51)">
<text xml:space="preserve" transform="matrix(1 0 -0 1 0 841.92)" font-size="15" font-family="SimSun"><tspan y="-198.98" x="145.1"> </tspan></text>
</g>
<g clip-path="url(#clip_52)">
<text xml:space="preserve" transform="matrix(1 0 -0 1 0 841.92)" font-size="15" font-family="SimSun"><tspan y="-174.74" x="115.1"> </tspan></text>
</g>
<g clip-path="url(#clip_53)">
<text xml:space="preserve" transform="matrix(1 0 -0 1 0 841.92)" font-size="15" font-family="SimSun"><tspan y="-150.38" x="154.1 169.1 184.1 199.1 214.1">&#x672c;&#x4eba;&#x7b7e;&#x540d;&#xff1a;</tspan></text>
</g>
<g clip-path="url(#clip_54)">
<text xml:space="preserve" transform="matrix(1 0 -0 1 0 841.92)" font-size="15" font-family="SimSun"><tspan y="-150.38" x="229.13 236.69">  </tspan></text>
</g>
<g clip-path="url(#clip_55)">
<text xml:space="preserve" transform="matrix(1 0 -0 1 0 841.92)" font-size="15" font-family="SimSun"><tspan y="-150.38" x="244.25"> </tspan></text>
</g>
<g clip-path="url(#clip_56)">
<text xml:space="preserve" transform="matrix(1 0 -0 1 0 841.92)" font-size="15" font-family="SimSun"><tspan y="-150.38" x="251.69"> </tspan></text>
</g>
<g clip-path="url(#clip_57)">
<text xml:space="preserve" transform="matrix(1 0 -0 1 0 841.92)" font-size="15" font-family="SimSun"><tspan y="-150.38" x="259.25 266.69 274.13 281.67503 289.22004 296.66004">      </tspan></text>
</g>
<g clip-path="url(#clip_58)">
<text xml:space="preserve" transform="matrix(1 0 -0 1 0 841.92)" font-size="15" font-family="SimSun"><tspan y="-150.38" x="304.25 311.69 319.23503 326.67503 334.22004">     </tspan></text>
</g>
<g clip-path="url(#clip_59)">
<text xml:space="preserve" transform="matrix(1 0 -0 1 0 841.92)" font-size="15" font-family="SimSun"><tspan y="-150.38" x="341.83">&#x65e5;</tspan></text>
</g>
<g clip-path="url(#clip_60)">
<text xml:space="preserve" transform="matrix(1 0 -0 1 0 841.92)" font-size="15" font-family="SimSun"><tspan y="-150.38" x="356.71"> </tspan></text>
</g>
<g clip-path="url(#clip_61)">
<text xml:space="preserve" transform="matrix(1 0 -0 1 0 841.92)" font-size="15" font-family="SimSun"><tspan y="-150.38" x="364.27 379.27">&#x671f;&#xff1a;</tspan></text>
</g>
<g clip-path="url(#clip_62)">
<text xml:space="preserve" transform="matrix(1 0 -0 1 0 841.92)" font-size="15" font-family="SimSun"><tspan y="-150.38" x="394.15"> </tspan></text>
</g>
<g clip-path="url(#clip_63)">
<text xml:space="preserve" transform="matrix(1 0 -0 1 0 841.92)" font-size="15" font-family="SimSun"><tspan y="-150.38" x="401.71 409.255 416.695 424.24003">    </tspan></text>
</g>
<g clip-path="url(#clip_64)">
<text xml:space="preserve" transform="matrix(1 0 -0 1 0 841.92)" font-size="15" font-family="SimSun"><tspan y="-150.38" x="431.83">&#x5e74;</tspan></text>
</g>
<g clip-path="url(#clip_65)">
<text xml:space="preserve" transform="matrix(1 0 -0 1 0 841.92)" font-size="15" font-family="SimSun"><tspan y="-150.38" x="446.74"> </tspan></text>
</g>
<g clip-path="url(#clip_66)">
<text xml:space="preserve" transform="matrix(1 0 -0 1 0 841.92)" font-size="15" font-family="SimSun"><tspan y="-150.38" x="454.3 461.74">  </tspan></text>
</g>
<g clip-path="url(#clip_67)">
<text xml:space="preserve" transform="matrix(1 0 -0 1 0 841.92)" font-size="15" font-family="SimSun"><tspan y="-150.38" x="469.3">&#x6708;</tspan></text>
</g>
<g clip-path="url(#clip_68)">
<text xml:space="preserve" transform="matrix(1 0 -0 1 0 841.92)" font-size="15" font-family="SimSun"><tspan y="-150.38" x="484.3"> </tspan></text>
</g>
<g clip-path="url(#clip_69)">
<text xml:space="preserve" transform="matrix(1 0 -0 1 0 841.92)" font-size="15" font-family="SimSun"><tspan y="-150.38" x="491.74 499.3">  </tspan></text>
</g>
<g clip-path="url(#clip_70)">
<text xml:space="preserve" transform="matrix(1 0 -0 1 0 841.92)" font-size="15" font-family="SimSun"><tspan y="-150.38" x="506.74">&#x65e5;</tspan></text>
</g>
<g clip-path="url(#clip_71)">
<text xml:space="preserve" transform="matrix(1 0 -0 1 0 841.92)" font-size="15" font-family="SimSun"><tspan y="-150.38" x="521.74"> </tspan></text>
</g>
<g clip-path="url(#clip_72)">
<text xml:space="preserve" transform="matrix(1 0 -0 1 0 841.92)" font-size="15" font-family="SimSun"><tspan y="-121.22" x="124.1 139.1 154.1 169.1 184.1 199.1 214.1">&#x6307;&#x5bfc;&#x8001;&#x5e08;&#x7b7e;&#x540d;&#xff1a;</tspan></text>
</g>
<g clip-path="url(#clip_73)">
<text xml:space="preserve" transform="matrix(1 0 -0 1 0 841.92)" font-size="15" font-family="SimSun"><tspan y="-121.22" x="229.13 236.69">  </tspan></text>
</g>
<g clip-path="url(#clip_74)">
<text xml:space="preserve" transform="matrix(1 0 -0 1 0 841.92)" font-size="15" font-family="SimSun"><tspan y="-121.22" x="244.13"> </tspan></text>
</g>
<g clip-path="url(#clip_75)">
<text xml:space="preserve" transform="matrix(1 0 -0 1 0 841.92)" font-size="15" font-family="SimSun"><tspan y="-121.22" x="251.69"> </tspan></text>
</g>
<g clip-path="url(#clip_76)">
<text xml:space="preserve" transform="matrix(1 0 -0 1 0 841.92)" font-size="15" font-family="SimSun"><tspan y="-121.22" x="259.25 266.69 274.23503 281.67503 289.22004 296.66004">      </tspan></text>
</g>
<g clip-path="url(#clip_77)">
<text xml:space="preserve" transform="matrix(1 0 -0 1 0 841.92)" font-size="15" font-family="SimSun"><tspan y="-121.22" x="304.25 311.69 319.23503 326.67503 334.22004">     </tspan></text>
</g>
<g clip-path="url(#clip_78)">
<text xml:space="preserve" transform="matrix(1 0 -0 1 0 841.92)" font-size="15" font-family="SimSun"><tspan y="-121.22" x="341.83">&#x65e5;</tspan></text>
</g>
<g clip-path="url(#clip_79)">
<text xml:space="preserve" transform="matrix(1 0 -0 1 0 841.92)" font-size="15" font-family="SimSun"><tspan y="-121.22" x="356.71"> </tspan></text>
</g>
<g clip-path="url(#clip_80)">
<text xml:space="preserve" transform="matrix(1 0 -0 1 0 841.92)" font-size="15" font-family="SimSun"><tspan y="-121.22" x="364.15 379.15">&#x671f;&#xff1a;</tspan></text>
</g>
<g clip-path="url(#clip_81)">
<text xml:space="preserve" transform="matrix(1 0 -0 1 0 841.92)" font-size="15" font-family="SimSun"><tspan y="-121.22" x="394.15"> </tspan></text>
</g>
<g clip-path="url(#clip_82)">
<text xml:space="preserve" transform="matrix(1 0 -0 1 0 841.92)" font-size="15" font-family="SimSun"><tspan y="-121.22" x="401.71 409.255 416.695 424.24003">    </tspan></text>
</g>
<g clip-path="url(#clip_83)">
<text xml:space="preserve" transform="matrix(1 0 -0 1 0 841.92)" font-size="15" font-family="SimSun"><tspan y="-121.22" x="431.83">&#x5e74;</tspan></text>
</g>
<g clip-path="url(#clip_84)">
<text xml:space="preserve" transform="matrix(1 0 -0 1 0 841.92)" font-size="15" font-family="SimSun"><tspan y="-121.22" x="446.74"> </tspan></text>
</g>
<g clip-path="url(#clip_85)">
<text xml:space="preserve" transform="matrix(1 0 -0 1 0 841.92)" font-size="15" font-family="SimSun"><tspan y="-121.22" x="454.3 461.74">  </tspan></text>
</g>
<g clip-path="url(#clip_86)">
<text xml:space="preserve" transform="matrix(1 0 -0 1 0 841.92)" font-size="15" font-family="SimSun"><tspan y="-121.22" x="469.3">&#x6708;</tspan></text>
</g>
<g clip-path="url(#clip_87)">
<text xml:space="preserve" transform="matrix(1 0 -0 1 0 841.92)" font-size="15" font-family="SimSun"><tspan y="-121.22" x="484.18"> </tspan></text>
</g>
<g clip-path="url(#clip_88)">
<text xml:space="preserve" transform="matrix(1 0 -0 1 0 841.92)" font-size="15" font-family="SimSun"><tspan y="-121.22" x="491.74 499.3">  </tspan></text>
</g>
<g clip-path="url(#clip_89)">
<text xml:space="preserve" transform="matrix(1 0 -0 1 0 841.92)" font-size="15" font-family="SimSun"><tspan y="-121.22" x="506.86">&#x65e5;</tspan></text>
</g>
</g>
</svg>
